<svg width="58" height="59" viewBox="0 0 58 59" fill="none" xmlns="http://www.w3.org/2000/svg">
<path d="M14.7666 58.1826H43.0999H14.7666Z" fill="white"/>
<path d="M14.7666 58.1826H43.0999" stroke="#222222" stroke-linecap="round" stroke-linejoin="round"/>
<path d="M0.600098 43.8076V6.43262C0.600098 4.90762 1.19712 3.44509 2.25983 2.36675C3.32253 1.28842 4.76387 0.682617 6.26676 0.682617H51.6001C53.103 0.682617 54.5443 1.28842 55.607 2.36675C56.6697 3.44509 57.2668 4.90762 57.2668 6.43262V43.8076C57.2668 45.3326 56.6697 46.7951 55.607 47.8735C54.5443 48.9518 53.103 49.5576 51.6001 49.5576H6.26676C4.76387 49.5576 3.32253 48.9518 2.25983 47.8735C1.19712 46.7951 0.600098 45.3326 0.600098 43.8076Z" fill="white" stroke="#222222"/>
</svg>
