<svg width="36" height="32" viewBox="0 0 36 32" fill="none" xmlns="http://www.w3.org/2000/svg">
<g clip-path="url(#clip0_457_35705)">
<path d="M25.5999 9.40811L24.7131 8.46639L22.0708 5.65039L24.7131 8.46639L25.5999 9.40811Z" fill="white"/>
<path d="M23.7715 10.1395L23.3875 9.72804L20.736 6.9029L16.32 2.19433L15.9818 1.82861H2.20347C2.02061 1.82861 1.82861 2.04804 1.82861 2.34976V29.6412C1.82861 29.952 2.02976 30.1623 2.20347 30.1623H11.3006L23.7715 16.1098V10.1303V10.1395Z" fill="white"/>
<path d="M22.0709 5.65029L17.6549 0.941714L16.7681 0L17.6549 0.941714L22.0709 5.65029Z" fill="white"/>
<path d="M0.173714 30.5647C0.064 30.2812 0 29.9704 0 29.6504C0 29.9795 0.064 30.2812 0.173714 30.5647Z" fill="black"/>
<path d="M2.20332 31.5427C1.74617 31.5427 1.30732 31.3507 0.978174 31.0033C0.813603 30.8296 0.685603 30.6285 0.594174 30.3999C0.502746 30.1622 0.457031 29.9153 0.457031 29.6502V2.3496C0.457031 2.0936 0.502746 1.8376 0.594174 1.59989C0.877603 0.905031 1.50846 0.457031 2.20332 0.457031H16.5667L25.1336 9.59074V13.8787L24.2193 14.9119V10.5142L23.7622 10.057H16.3839C15.9085 10.057 15.5336 9.67303 15.5336 9.20675V1.82846L15.0765 1.37132H2.20332C1.74617 1.37132 1.37132 1.81017 1.37132 2.3496V29.641C1.37132 30.1805 1.74617 30.6193 2.20332 30.6193H10.2856L9.47189 31.5336H2.20332V31.5427Z" fill="#333333"/>
<path d="M16.3749 0.914286L16.9874 1.56343L21.4034 6.272L24.0549 9.09714L24.6857 9.77371V13.7051V10.5143L23.7714 9.6H16.3931C16.1737 9.6 16 9.41714 16 9.20686V1.82857L15.0857 0.914286H16.3749ZM1.48114 1.16114C1.14286 1.41714 0.914286 1.856 0.914286 2.34971C0.914286 2.14857 0.950857 1.95657 1.024 1.77371C1.12457 1.51771 1.28914 1.30743 1.48114 1.16114ZM0.914286 29.6503C0.914286 30.0069 1.03314 30.3269 1.22514 30.5737C1.14286 30.464 1.07886 30.3543 1.024 30.2263C0.950857 30.0434 0.914286 29.8514 0.914286 29.6503ZM1.55429 30.8846C1.69143 30.976 1.83771 31.04 2.00229 31.0674C1.84686 31.04 1.69143 30.976 1.55429 30.8846ZM2.19429 31.0857H9.26171H2.20343M16.768 0H2.20343C1.28914 0 0.512 0.594286 0.173714 1.43543C0.064 1.71886 0 2.02971 0 2.34971V29.6411C0 29.9703 0.064 30.272 0.173714 30.5554C0.283429 30.8389 0.448 31.0949 0.649143 31.3051C1.05143 31.7349 1.6 31.9909 2.21257 31.9909H9.69143L11.3097 30.1623H2.20343C2.02057 30.1623 1.82857 29.9429 1.82857 29.6411V2.34971C1.82857 2.03886 2.02971 1.82857 2.20343 1.82857H15.0857V9.20686C15.0857 9.92914 15.6709 10.5143 16.3931 10.5143H23.7714V16.1189L25.6 14.0617V9.41714L24.7131 8.47543L22.0617 5.65029L17.6457 0.941714L16.7589 0L16.768 0Z" fill="#333333"/>
<path d="M29.9336 18.743L21.1656 27.511H17.6273V23.9728L26.3953 15.2048L29.9336 18.743ZM35.1633 17.5088C35.1633 17.9659 34.7062 18.4322 34.2399 18.8893L30.3907 22.7385L29.0102 21.3579L33.0056 17.3625L32.0822 16.439L31.0033 17.5179L27.465 13.9796L30.8479 10.7522C31.1587 10.4413 31.7713 10.4413 32.2285 10.7522L34.3862 12.9099C34.697 13.2208 34.697 13.8333 34.3862 14.2905C34.0753 14.6013 33.7736 14.903 33.7736 15.2139C33.7736 15.5248 34.0845 15.8265 34.3862 16.1373C34.8433 16.5945 35.3096 17.0608 35.1542 17.5179L35.1633 17.5088ZM16.5485 25.1979C16.2376 25.1979 15.9359 25.3533 15.7805 25.3533L15.0125 21.9705H12.7085L9.48102 24.5853L10.4045 20.4345H8.10045L6.56445 28.1236H8.86845L13.3302 24.1282L14.2536 27.6665H15.7896L16.5576 27.511V25.207L16.5485 25.1979Z" fill="#F58220"/>
<path d="M4.11426 11.4287H11.4285" stroke="#333333" stroke-width="2" stroke-miterlimit="10"/>
<path d="M4.11426 16H15.0857" stroke="#333333" stroke-width="2" stroke-miterlimit="10"/>
</g>
<defs>
<clipPath id="clip0_457_35705">
<rect width="35.2" height="32" fill="white"/>
</clipPath>
</defs>
</svg>
