<svg width="29" height="32" viewBox="0 0 29 32" fill="none" xmlns="http://www.w3.org/2000/svg">
<g clip-path="url(#clip0_457_35672)">
<path d="M24.6224 9.04875L23.7694 8.14301L21.228 5.43457L23.7694 8.14301L24.6224 9.04875Z" fill="white"/>
<path d="M22.8635 9.75219L22.4942 9.35648L19.944 6.63925L15.6967 2.11053L15.3713 1.75879H2.11933C1.94346 1.75879 1.75879 1.96984 1.75879 2.26003V28.509C1.75879 28.808 1.95225 29.0102 2.11933 29.0102H10.869L22.8635 15.4944V9.7434V9.75219Z" fill="white"/>
<path d="M21.2277 5.43446L16.9804 0.905743L16.1274 0L16.9804 0.905743L21.2277 5.43446Z" fill="white"/>
<path d="M0.167079 29.3969C0.0615554 29.1243 0 28.8254 0 28.5176C0 28.8341 0.0615554 29.1243 0.167079 29.3969Z" fill="black"/>
<path d="M2.11904 30.3378C1.67935 30.3378 1.25726 30.1531 0.94069 29.819C0.782405 29.6519 0.659294 29.4584 0.571357 29.2386C0.483421 29.0099 0.439453 28.7725 0.439453 28.5175V2.25973C0.439453 2.01351 0.483421 1.76729 0.571357 1.53866C0.84396 0.870341 1.45072 0.439453 2.11904 0.439453H15.9338L24.1734 9.22428V13.3485L23.2941 14.3422V10.1124L22.8544 9.67276H15.7579C15.3007 9.67276 14.9401 9.30343 14.9401 8.85495V1.7585L14.5005 1.31882H2.11904C1.67935 1.31882 1.31882 1.74091 1.31882 2.25973V28.5087C1.31882 29.0275 1.67935 29.4496 2.11904 29.4496H9.8926L9.10997 30.329H2.11904V30.3378Z" fill="#333333"/>
<path d="M15.7494 0.879362L16.3386 1.50371L20.5859 6.03243L23.136 8.74966L23.7428 9.40038V13.1816V10.1127L22.8634 9.23331H15.767C15.5559 9.23331 15.3888 9.05743 15.3888 8.85518V1.75872L14.5095 0.879362H15.7494ZM1.42457 1.11679C1.0992 1.36301 0.879363 1.78511 0.879363 2.25996C0.879363 2.0665 0.914537 1.88184 0.984886 1.70596C1.08162 1.45974 1.2399 1.25749 1.42457 1.11679ZM0.879363 28.5177C0.879363 28.8607 0.99368 29.1685 1.17835 29.4059C1.0992 29.3004 1.03765 29.1948 0.984886 29.0717C0.914537 28.8959 0.879363 28.7112 0.879363 28.5177ZM1.49492 29.7049C1.62682 29.7928 1.76752 29.8544 1.9258 29.8807C1.77631 29.8544 1.62682 29.7928 1.49492 29.7049ZM2.11047 29.8983H8.90794H2.11926M16.1275 0H2.11926C1.2399 0 0.492443 0.571586 0.167079 1.3806C0.0615554 1.6532 0 1.95218 0 2.25996V28.5089C0 28.8255 0.0615554 29.1157 0.167079 29.3883C0.272602 29.6609 0.430888 29.9071 0.624347 30.1094C1.01127 30.5227 1.53888 30.7689 2.12806 30.7689H9.32124L10.8777 29.0102H2.11926C1.94339 29.0102 1.75873 28.7991 1.75873 28.5089V2.25996C1.75873 1.96098 1.95218 1.75872 2.11926 1.75872H14.5095V8.85518C14.5095 9.54988 15.0723 10.1127 15.767 10.1127H22.8634V15.5032L24.6222 13.5246V9.05743L23.7692 8.15169L21.219 5.43446L16.9717 0.905743L16.1187 0L16.1275 0Z" fill="#333333"/>
<path d="M3.95703 10.9922H12.7507" stroke="#333333" stroke-width="2" stroke-miterlimit="10"/>
<path d="M3.95703 15.3887H8.35384" stroke="#333333" stroke-width="2" stroke-miterlimit="10"/>
<path d="M16.3999 13.5508C12.2405 13.5508 8.86377 16.9363 8.86377 21.0869C8.86377 25.2375 12.2493 28.6231 16.3999 28.6231C18.3169 28.6231 20.0668 27.902 21.4035 26.7148L23.0743 28.1658C23.2853 28.3505 23.6019 28.3241 23.7865 28.113L24.4461 27.348C24.6307 27.1369 24.6044 26.8204 24.3933 26.6357L22.7225 25.1848C23.4964 24.0064 23.9448 22.5906 23.9448 21.0781C23.9448 16.9187 20.5593 13.542 16.4087 13.542L16.3999 13.5508ZM16.3999 25.3606C14.0432 25.3606 12.135 23.4436 12.135 21.0957C12.135 18.7478 14.052 16.822 16.3999 16.822C18.7478 16.822 20.6648 18.739 20.6648 21.0957C20.6648 23.4524 18.7478 25.3606 16.3999 25.3606Z" fill="#F58220"/>
<path d="M26.1081 26.9786C25.8179 26.7412 25.3782 26.7764 25.132 27.0578L23.4788 28.966C23.2326 29.2474 23.2678 29.6783 23.5579 29.9245L25.8619 31.8503C26.1433 32.0877 26.5742 32.0526 26.8116 31.7624L28.4384 29.8102C28.6758 29.5288 28.6407 29.0979 28.3505 28.8605L26.1081 26.9874V26.9786Z" fill="#F58220"/>
</g>
<defs>
<clipPath id="clip0_457_35672">
<rect width="28.5969" height="32" fill="white"/>
</clipPath>
</defs>
</svg>
