<svg width="35" height="42" viewBox="0 0 35 42" fill="none" xmlns="http://www.w3.org/2000/svg">
<path d="M17.1217 39.0557V30.1886C17.1374 29.6946 17.3099 29.2164 17.6235 28.8322L21.5043 24.2771C21.4416 24.1674 21.3945 24.0576 21.3475 23.94L17.9841 15.4884L16.4474 18.256C16.3377 18.4598 16.173 18.6323 15.977 18.7656C15.8124 18.8989 15.6242 18.9929 15.4204 19.04L9.95588 20.3963C9.18755 20.5923 8.41139 20.1219 8.21538 19.3536C8.01938 18.5853 8.48979 17.8091 9.25811 17.6131L14.1895 16.39L17.1923 10.9726C17.8979 9.29479 19.8344 8.51078 21.5121 9.21639C22.3275 9.56135 22.9625 10.2121 23.2918 11.0353L27.2119 20.8902C27.7215 22.176 27.3765 23.6499 26.3416 24.5672L20.9868 30.855V39.0557C20.9868 40.1298 20.1166 41 19.0425 41C17.9684 41 17.0982 40.1298 17.0982 39.0557H17.1217ZM13.6799 4.49667C13.6799 2.56801 15.2479 1 17.1766 1C19.1052 1 20.6732 2.56801 20.6732 4.49667C20.6732 6.42532 19.1052 7.99334 17.1766 7.99334C15.2479 7.99334 13.6799 6.42532 13.6799 4.49667Z" stroke="#222222"/>
<path d="M31.7357 27.9149C30.3794 27.9149 29.2818 26.8173 29.2818 25.461C29.2818 25.1082 29.3523 24.7632 29.5013 24.4496L29.2034 23.9322H5.78511L5.48719 24.4496C6.04383 25.6884 5.49503 27.1388 4.26414 27.6954C3.02541 28.2521 1.57499 27.7033 1.01835 26.4724C0.877229 26.1588 0.798828 25.8138 0.798828 25.461C0.798828 24.1909 1.76316 23.1325 3.02541 23.0149L3.61341 21.9957C3.68397 21.8781 3.76237 21.7683 3.86429 21.6821C4.13085 21.2979 4.5699 21.0706 5.03246 21.0706H29.9639C30.4499 21.0706 30.9047 21.3136 31.1634 21.7213C31.2575 21.8154 31.3359 21.9173 31.4064 22.027L31.9709 23.0149C33.3194 23.1403 34.3151 24.3399 34.1897 25.6884C34.0721 26.9506 33.0136 27.9149 31.7436 27.9149H31.7357ZM31.7357 24.5123C31.2104 24.5123 30.7871 24.9357 30.7871 25.461C30.7871 25.9863 31.2104 26.4096 31.7357 26.4096C32.261 26.4096 32.6844 25.9863 32.6844 25.461C32.6844 24.9357 32.261 24.5202 31.7357 24.5202V24.5123ZM3.24493 24.5123C2.71964 24.5123 2.29628 24.9357 2.29628 25.4532C2.29628 25.9784 2.71964 26.4018 3.23709 26.4018C3.75453 26.4018 4.18573 25.9784 4.18573 25.461C4.18573 24.9357 3.76237 24.5202 3.24493 24.5123Z" fill="#FF9015"/>
</svg>
