<svg width="31" height="41" viewBox="0 0 31 41" fill="none" xmlns="http://www.w3.org/2000/svg">
<path d="M27.9418 41H3.05743C1.70894 41 0.611328 39.9024 0.611328 38.5539V28.9028C0.611328 27.5543 1.70894 26.4567 3.05743 26.4567H10.8112V29.2791C10.5996 29.624 10.5996 30.0631 10.8112 30.4081V33.1678C10.5996 33.5127 10.5996 33.9518 10.8112 34.2967V34.7906C10.8112 35.7315 11.5717 36.4998 12.5204 36.4998C13.4612 36.4998 14.2295 35.7393 14.2295 34.7906V26.4567H18.4475L18.863 28.8479C18.3142 29.0752 18.0555 29.7025 18.2828 30.2513C18.4396 30.6354 18.8081 30.8941 19.2236 30.9177L19.5294 32.6895C18.9571 32.5484 18.3691 32.9012 18.2279 33.4735C18.0868 34.0458 18.4396 34.6339 19.012 34.775C19.0982 34.7985 19.1844 34.8063 19.2707 34.8063C19.498 34.8063 19.7254 34.7358 19.9057 34.5946C20.1723 35.214 20.7838 35.6217 21.4581 35.6217C21.56 35.6217 21.6541 35.6139 21.7481 35.5982C22.2342 35.5119 22.6576 35.2219 22.9085 34.7985C22.9477 34.7985 22.9947 34.8063 23.0339 34.8063C23.6298 34.8063 24.108 34.3281 24.108 33.7322C24.108 33.1364 23.6298 32.6582 23.0339 32.6582C23.0339 32.6582 22.979 32.6582 22.9477 32.6582L22.6341 30.8393C23.1829 31.0588 23.8101 30.8001 24.0374 30.2513C24.257 29.7025 23.9982 29.0752 23.4494 28.8479C23.0653 28.6911 22.6341 28.7695 22.3283 29.0439L21.8736 26.4567H27.9418C29.2903 26.4567 30.3879 27.5543 30.3879 28.9028V38.5539C30.3879 39.9024 29.2903 41 27.9418 41ZM26.8207 36.539C26.2248 36.539 25.7466 37.0172 25.7466 37.6131C25.7466 38.2089 26.2248 38.6872 26.8207 38.6872C27.4165 38.6872 27.8947 38.2089 27.8947 37.6131C27.8947 37.0172 27.4165 36.539 26.8207 36.539ZM23.0496 36.539C22.4537 36.539 21.9755 37.0172 21.9755 37.6131C21.9755 38.2089 22.4537 38.6872 23.0496 38.6872C23.6454 38.6872 24.1237 38.2089 24.1237 37.6131C24.1237 37.0172 23.6454 36.539 23.0496 36.539ZM19.2785 36.539C18.6827 36.539 18.2044 37.0172 18.2044 37.6131C18.2044 38.2089 18.6827 38.6872 19.2785 38.6872C19.8744 38.6872 20.3526 38.2089 20.3526 37.6131C20.3526 37.0172 19.8744 36.539 19.2785 36.539ZM15.5074 36.539C14.9116 36.539 14.4334 37.0172 14.4334 37.6131C14.4334 38.2089 14.9116 38.6872 15.5074 38.6872C16.1033 38.6872 16.5815 38.2089 16.5815 37.6131C16.5815 37.0172 16.1033 36.539 15.5074 36.539ZM11.7364 36.539C11.1405 36.539 10.6623 37.0172 10.6623 37.6131C10.6623 38.2089 11.1405 38.6872 11.7364 38.6872C12.3322 38.6872 12.8105 38.2089 12.8105 37.6131C12.8105 37.0172 12.3322 36.539 11.7364 36.539ZM7.96531 36.539C7.36946 36.539 6.89122 37.0172 6.89122 37.6131C6.89122 38.2089 7.36946 38.6872 7.96531 38.6872C8.56115 38.6872 9.0394 38.2089 9.0394 37.6131C9.0394 37.0172 8.56115 36.539 7.96531 36.539ZM4.19424 36.539C3.59839 36.539 3.12015 37.0172 3.12015 37.6131C3.12015 38.2089 3.59839 38.6872 4.19424 38.6872C4.79008 38.6872 5.26833 38.2089 5.26833 37.6131C5.26833 37.0172 4.79008 36.539 4.19424 36.539ZM26.8363 32.6503C26.2405 32.6503 25.7622 33.1286 25.7622 33.7244C25.7622 34.3202 26.2405 34.7985 26.8363 34.7985C27.4322 34.7985 27.9104 34.3202 27.9104 33.7244C27.9104 33.1286 27.4322 32.6503 26.8363 32.6503ZM15.5153 32.6503C14.9194 32.6503 14.4412 33.1286 14.4412 33.7244C14.4412 34.3202 14.9194 34.7985 15.5153 34.7985C16.1111 34.7985 16.5894 34.3202 16.5894 33.7244C16.5894 33.1286 16.1111 32.6503 15.5153 32.6503ZM7.96531 32.6503C7.36946 32.6503 6.89122 33.1286 6.89122 33.7244C6.89122 34.3202 7.36946 34.7985 7.96531 34.7985C8.56115 34.7985 9.0394 34.3202 9.0394 33.7244C9.0394 33.1286 8.56115 32.6503 7.96531 32.6503ZM4.19424 32.6503C3.59839 32.6503 3.12015 33.1286 3.12015 33.7244C3.12015 34.3202 3.59839 34.7985 4.19424 34.7985C4.79008 34.7985 5.26833 34.3202 5.26833 33.7244C5.26833 33.1286 4.79008 32.6503 4.19424 32.6503ZM26.8363 28.7616C26.2405 28.7616 25.7622 29.2399 25.7622 29.8357C25.7622 30.4316 26.2405 30.9098 26.8363 30.9098C27.4322 30.9098 27.9104 30.4316 27.9104 29.8357C27.9104 29.2399 27.4322 28.7616 26.8363 28.7616ZM15.5153 28.7616C14.9194 28.7616 14.4412 29.2399 14.4412 29.8357C14.4412 30.4316 14.9194 30.9098 15.5153 30.9098C16.1111 30.9098 16.5894 30.4316 16.5894 29.8357C16.5894 29.2399 16.1111 28.7616 15.5153 28.7616ZM7.96531 28.7616C7.36946 28.7616 6.89122 29.2399 6.89122 29.8357C6.89122 30.4316 7.36946 30.9098 7.96531 30.9098C8.56115 30.9098 9.0394 30.4316 9.0394 29.8357C9.0394 29.2399 8.56115 28.7616 7.96531 28.7616ZM4.19424 28.7616C3.59839 28.7616 3.12015 29.2399 3.12015 29.8357C3.12015 30.4316 3.59839 30.9098 4.19424 30.9098C4.79008 30.9098 5.26833 30.4316 5.26833 29.8357C5.26833 29.2399 4.79008 28.7616 4.19424 28.7616Z" fill="#FF9015"/>
<path d="M10.8111 34.7907V12.8855L7.02433 19.4398C6.64016 20.1062 5.7856 20.3336 5.11919 19.9494C4.45279 19.5653 4.22542 18.7107 4.60959 18.0443L9.23522 10.0396C9.52531 9.53783 10.0976 9.26343 10.6778 9.35751C10.7562 9.34967 10.8268 9.34183 10.9052 9.34183H17.53C17.6084 9.34183 17.6947 9.34183 17.7731 9.35751C18.3532 9.25559 18.9334 9.52215 19.2235 10.0318L23.8491 18.0365C24.2333 18.7029 24.0059 19.5574 23.3395 19.9416C22.6731 20.3258 21.8185 20.0984 21.4344 19.432L17.6241 12.8307V19.7299L21.058 23.8303C21.3481 24.0811 21.5441 24.4261 21.6068 24.8103L23.1435 33.6303C23.3003 34.5476 22.6888 35.4257 21.7636 35.5904C20.8464 35.7472 19.9683 35.1356 19.8036 34.2105L18.3532 25.8765L14.5508 21.3293H14.2372V34.775C14.2372 35.7158 13.4767 36.4841 12.528 36.4841C11.5794 36.4841 10.8189 35.7236 10.8189 34.775L10.8111 34.7907ZM10.8268 4.40259C10.8268 2.52097 12.3477 1 14.2293 1C16.111 1 17.6319 2.52097 17.6319 4.40259C17.6319 6.2842 16.111 7.80517 14.2293 7.80517C12.3477 7.80517 10.8268 6.2842 10.8268 4.40259Z" stroke="#222222"/>
</svg>
