<svg width="31" height="36" viewBox="0 0 31 36" fill="none" xmlns="http://www.w3.org/2000/svg">
<path d="M10.3793 35.3517C9.71891 35.3517 9.17725 34.8175 9.17725 34.1497V34.1274C9.17725 33.467 9.71149 32.9253 10.3793 32.9253H12.4421V32.3837C12.4421 31.8123 12.9021 31.3523 13.4735 31.3523H13.4957C14.0671 31.3523 14.5271 31.8123 14.5271 32.3837V32.9253H15.744V32.3837C15.744 31.8123 16.2041 31.3523 16.7754 31.3523H16.7977C17.369 31.3523 17.8291 31.8123 17.8291 32.3837V32.9253H19.0459V32.3837C19.0459 31.8123 19.506 31.3523 20.0773 31.3523H20.0996C20.6709 31.3523 21.131 31.8123 21.131 32.3837V32.9253H22.3479V32.3837C22.3479 31.8123 22.8079 31.3523 23.3793 31.3523H23.4015C23.9729 31.3523 24.4329 31.8123 24.4329 32.3837V32.9253H25.6498V32.3837C25.6498 31.8123 26.1099 31.3523 26.6812 31.3523H26.7035C27.2748 31.3523 27.7348 31.8123 27.7348 32.3837V32.9253H29.7976C30.458 32.9253 30.9997 33.4596 30.9997 34.1274V34.1497C30.9997 34.81 30.4654 35.3517 29.7976 35.3517H10.3793Z" fill="#FF9015"/>
<path d="M1.05221 29.8908C0.792504 28.7259 1.52709 27.5683 2.69204 27.3086L11.9671 25.231C12.1601 25.1939 12.353 25.1717 12.5533 25.1642H20.1292V22.775L17.7622 24.2367C17.176 24.5855 16.4192 24.3851 16.0704 23.7989C15.7365 23.2276 15.9072 22.493 16.4637 22.1294L20.1292 19.8663V13.2921C20.1292 11.0958 21.91 9.31496 24.1064 9.31496H24.188C26.3843 9.31496 28.1651 11.0958 28.1651 13.2921V25.4759C28.1651 27.4422 26.7331 29.1117 24.7964 29.4085C24.6184 29.453 24.4403 29.4753 24.2548 29.4753H12.7462L3.63439 31.5158C2.46944 31.7755 1.31191 31.0484 1.05221 29.8834V29.8908ZM20.5373 4.26189C20.5373 2.26589 22.1549 0.648315 24.1509 0.648315C26.1469 0.648315 27.7645 2.26589 27.7645 4.26189C27.7645 6.25789 26.1469 7.87547 24.1509 7.87547C22.1549 7.87547 20.5373 6.25789 20.5373 4.26189Z" stroke="#222222"/>
</svg>
