<svg width="40" height="18" viewBox="0 0 40 18" fill="none" xmlns="http://www.w3.org/2000/svg">
<g clip-path="url(#clip0_1472_350)">
<path d="M35.9254 6.30444C33.9083 6.30444 32.2744 7.94609 32.2744 9.97282C32.2744 11.9996 33.9083 13.6412 35.9254 13.6412C37.9426 13.6412 39.5765 11.9996 39.5765 9.97282C39.5765 7.94609 37.9426 6.30444 35.9254 6.30444Z" stroke="#222222"/>
<path d="M27.8703 7.08809H16.8769C16.7558 7.08809 16.6348 7.10836 16.5205 7.12187L14.1201 2.16314C14.0663 2.03478 14.0058 1.91317 13.9251 1.79157C13.3401 0.933589 12.1702 0.717404 11.3163 1.30516L1.42552 8.12848C0.5716 8.71623 0.356437 9.89173 0.94141 10.7497C1.52638 11.6077 2.69633 11.8239 3.55025 11.2361L11.639 5.66262L14.5168 11.6145C14.5975 11.7766 14.6983 11.9185 14.8127 12.0468C15.3842 12.9251 16.3659 13.5061 17.4887 13.5061H27.8703C29.6319 13.5061 31.0641 12.0671 31.0641 10.2971C31.0641 8.52707 29.6319 7.08809 27.8703 7.08809Z" stroke="#222222"/>
<path d="M39.0385 15.4383H13.8981L10.8119 9.62833C10.5631 8.90546 9.97815 9.35134 9.97815 9.35134L0.665658 15.4856C0.2824 15.6139 0 15.972 0 16.3976C0 16.9313 0.430324 17.3637 0.961506 17.3637H39.0452C39.5764 17.3637 40.0067 16.9313 40.0067 16.3976C40.0067 15.8639 39.5764 15.4315 39.0452 15.4315L39.0385 15.4383Z" fill="#FF9015"/>
</g>
<defs>
<clipPath id="clip0_1472_350">
<rect width="40" height="16.7273" fill="white" transform="translate(0 0.636353)"/>
</clipPath>
</defs>
</svg>
