<svg width="30" height="41" viewBox="0 0 30 41" fill="none" xmlns="http://www.w3.org/2000/svg">
<path d="M3.47764 40.9998C1.92531 40.9998 0.670898 39.7454 0.670898 38.1931C0.670898 36.9151 1.53331 35.794 2.77204 35.4726L5.78262 18.5459C5.7983 18.4675 5.82182 18.3969 5.85318 18.3185C6.00214 17.8403 6.44903 17.511 6.95079 17.511H14.8693C15.371 17.511 15.8179 17.8324 15.9747 18.3185C16.0061 18.3891 16.0296 18.4675 16.0453 18.5459L19.6752 38.93C19.785 39.5572 19.3695 40.1609 18.7344 40.2707C18.6638 40.2864 18.6011 40.2864 18.5306 40.2864C17.9661 40.2864 17.4878 39.8865 17.3938 39.3299L14.7909 24.7238H7.03703L5.05349 35.8489C6.33926 36.7191 6.67639 38.4596 5.81398 39.7454C5.2887 40.5216 4.41845 40.9841 3.48548 40.9841L3.47764 40.9998ZM3.47764 36.4839C2.53683 36.4839 1.77635 37.2444 1.77635 38.1852C1.77635 39.126 2.53683 39.8865 3.47764 39.8865C4.41845 39.8865 5.17893 39.126 5.17893 38.1852C5.17893 37.2444 4.41845 36.4839 3.47764 36.4839ZM7.90728 19.8316L7.44471 22.4189H14.3753L13.9128 19.8316H7.90728Z" fill="#FF9015"/>
<path d="M20.8588 38.3815V28.7069C20.8588 28.5501 20.8745 28.4011 20.9137 28.2522C20.9451 27.9778 21.0313 27.7191 21.1724 27.4839L23.7753 22.9837C23.6891 22.8582 23.6107 22.7249 23.548 22.5917L19.2281 13.0895L17.2053 16.3039C17.1269 16.4294 17.0329 16.5313 16.9153 16.6175C16.7114 16.7978 16.4449 16.8998 16.1705 16.8998H9.63968C9.02032 16.8998 8.51855 16.398 8.51855 15.7786C8.51855 15.1593 9.02032 14.6575 9.63968 14.6575H15.5981L18.7812 9.60851C19.4633 7.99346 21.3292 7.23297 22.9521 7.91506C23.6891 8.22866 24.2771 8.80098 24.6064 9.53011L29.0438 19.291C29.5613 20.4356 29.3653 21.7841 28.5264 22.7249C28.4872 22.8112 28.448 22.8974 28.401 22.9837L24.6456 29.4909C24.6456 29.4909 24.622 29.5301 24.6142 29.5458V38.3894C24.6142 39.4243 23.7753 40.2553 22.7483 40.2553C21.7212 40.2553 20.8823 39.4164 20.8823 38.3894L20.8588 38.3815ZM14.6965 4.26159C14.6965 2.45837 16.1548 1.00012 17.958 1.00012C19.7612 1.00012 21.2195 2.45837 21.2195 4.26159C21.2195 6.0648 19.7612 7.52305 17.958 7.52305C16.1548 7.52305 14.6965 6.0648 14.6965 4.26159Z" stroke="#222222"/>
</svg>
