<svg width="18" height="42" viewBox="0 0 18 42" fill="none" xmlns="http://www.w3.org/2000/svg">
<path d="M9.61353 39.0242V27.2421H8.39409V39.0242C8.37257 40.1171 7.4831 40.9855 6.39995 40.971C5.3455 40.9493 4.49189 40.0953 4.47037 39.0242V15.8724C3.71719 18.3765 3.66697 23.4208 3.66697 23.4208C3.71001 24.2748 3.05726 24.9986 2.21799 25.042C2.18213 25.042 2.13909 25.042 2.10322 25.042C0.496433 25.042 0.575338 23.3702 0.575338 23.3702C1.09181 15.5106 2.25386 12.9848 3.30114 10.9729C4.08302 9.47476 5.99108 9.35173 6.53624 9.34449H11.4642C12.0094 9.34449 13.9246 9.46752 14.6993 10.9729C15.7394 12.9848 16.9086 15.5106 17.4251 23.3702C17.4251 23.3702 17.504 25.042 15.8972 25.042C15.0508 25.0637 14.355 24.3906 14.3263 23.5439C14.3263 23.5005 14.3263 23.4643 14.3263 23.4208C14.3263 23.4208 14.2761 18.3838 13.5229 15.8724V25.013C13.5229 25.013 13.5229 25.0564 13.5229 25.0782V39.0242C13.5229 40.1171 12.6478 41 11.5646 41C10.4815 41 9.60636 40.1171 9.60636 39.0242H9.61353ZM5.73285 4.29293C5.73285 2.47639 7.19617 1 8.99664 1C10.7971 1 12.2604 2.47639 12.2604 4.29293C12.2604 6.10946 10.7971 7.58585 8.99664 7.58585C7.19617 7.58585 5.73285 6.10946 5.73285 4.29293Z" stroke="#222222"/>
<path d="M9.60639 27.343H8.4013C8.25066 26.4456 7.87766 25.5916 7.31815 24.8752C6.68691 24.1152 5.51768 23.9994 4.87927 23.9994C4.62821 23.9994 4.46323 24.0139 4.45605 24.0212V20.7355H8.2148V22.2987H9.77137V20.7355H13.5301V24.0212C13.5301 24.0212 13.358 23.9994 13.1069 23.9994C12.4685 23.9994 11.2993 24.1152 10.668 24.8752C10.1085 25.5916 9.74268 26.4456 9.59922 27.343H9.60639Z" fill="#FF9015"/>
</svg>
