<svg width="14" height="14" viewBox="0 0 14 14" fill="none" xmlns="http://www.w3.org/2000/svg">
<g clip-path="url(#clip0_1304_2774)">
<path d="M13.9888 8.62196C13.6859 9.87975 13.0345 11.0307 12.104 11.9492C10.7647 13.2717 8.98415 14.0002 7.09048 14.0002C5.1968 14.0002 3.41621 13.2719 2.07699 11.9492C0.737567 10.6265 0 8.86843 0 6.99845C0 5.12847 0.737567 3.37016 2.07679 2.0477C4.74128 -0.583833 9.017 -0.679197 11.7975 1.76277L12.7158 1.27178C12.7996 1.2271 12.8999 1.22613 12.9841 1.26886C13.0689 1.31159 13.1265 1.39239 13.1387 1.48581L13.5012 4.25582C13.515 4.3609 13.4688 4.46442 13.3816 4.52521C13.3319 4.5592 13.2738 4.57668 13.2156 4.57668C13.1708 4.57668 13.1255 4.56638 13.0842 4.5456L10.2343 3.10544C10.1393 3.05727 10.0787 2.96094 10.0771 2.85547C10.0761 2.74943 10.1342 2.65173 10.2284 2.60162L11.0072 2.1854C8.5542 0.235012 4.94504 0.384175 2.66881 2.63212C1.48752 3.79804 0.837089 5.3491 0.837089 6.99845C0.837089 8.64779 1.48752 10.1983 2.66881 11.3648C3.8501 12.5313 5.42023 13.1736 7.09048 13.1736C8.76072 13.1736 10.3309 12.5313 11.5121 11.3648C12.3329 10.5547 12.9076 9.54005 13.1739 8.43084C13.2276 8.20865 13.4526 8.07153 13.6782 8.12397C13.9032 8.17699 14.0421 8.39957 13.989 8.62196H13.9888Z" fill="#333333"/>
</g>
<defs>
<clipPath id="clip0_1304_2774">
<rect width="14" height="14" fill="white"/>
</clipPath>
</defs>
</svg>
