<svg width="33" height="41" viewBox="0 0 33 41" fill="none" xmlns="http://www.w3.org/2000/svg">
<path d="M2.28608 34.1291C1.43179 33.5413 1.22018 32.3735 1.80799 31.5192L7.26288 23.572C7.56071 23.1409 8.02312 22.8509 8.54039 22.7804C8.67363 22.7412 8.81471 22.7177 8.95578 22.7098L17.146 22.4042C17.146 22.3258 17.146 22.2474 17.146 22.1691V19.4808H13.7915C13.047 19.4651 12.4591 18.846 12.4748 18.1014C12.4905 17.3804 13.0705 16.8004 13.7915 16.7847H17.146V12.4506C17.146 10.3501 18.8467 8.64939 20.9471 8.64939C23.0476 8.64939 24.7483 10.3501 24.7483 12.4506V22.1769C24.7483 24.1363 23.2592 25.7743 21.2998 25.9624C21.1588 26.0016 21.0177 26.0173 20.8766 26.0251L9.84142 26.4327L4.89596 33.6431C4.30815 34.4974 3.14036 34.7169 2.28608 34.1291ZM17.5222 4.31526C17.5222 2.48129 19.0034 1 20.8374 1C22.6714 1 24.1527 2.48129 24.1527 4.31526C24.1527 6.14923 22.6714 7.63052 20.8374 7.63052C19.0113 7.63052 17.5222 6.14923 17.5222 4.31526Z" stroke="#222222"/>
<path d="M29.8037 40.1639L26.8333 31.1116H12.9531L9.98272 40.1639C9.77894 40.7909 9.09708 41.1358 8.47008 40.9242C7.84308 40.7204 7.49824 40.0385 7.70985 39.4115L10.4373 31.1116H10.4216C9.51247 31.1116 8.77575 30.3749 8.77575 29.4658C8.77575 28.5566 9.51247 27.8199 10.4216 27.8199H12.0675L13.4312 23.3525H11.6599C10.9702 23.3525 10.4138 22.7961 10.4138 22.1064C10.4138 21.4167 10.9702 20.868 11.6599 20.8602H27.5073L29.3805 10.1934C29.5294 9.33126 30.3524 8.75129 31.2145 8.90804C32.0766 9.05695 32.6566 9.87988 32.4998 10.742L29.2159 29.4109V29.4579C29.2159 29.7087 29.1611 29.9517 29.0513 30.179V30.1947L32.0844 39.4115C32.3039 40.0385 31.9747 40.7204 31.3477 40.932C30.7207 41.1515 30.0389 40.8223 29.8272 40.1953C29.8272 40.1796 29.8194 40.1639 29.8116 40.1483L29.8037 40.1639ZM26.2769 27.8199L27.0606 23.3525H15.4454L14.0817 27.8199H26.2769Z" fill="#FF9015"/>
</svg>
