<svg width="25" height="40" viewBox="0 0 25 40" fill="none" xmlns="http://www.w3.org/2000/svg">
<path d="M2.23047 38.0988V21.5716H1.07602C0.577 21.5716 0.174805 21.1694 0.174805 20.6704C0.174805 20.1714 0.577 19.7692 1.07602 19.7692H5.85023C6.34925 19.7692 6.75144 20.1714 6.75144 20.6704C6.75144 21.1694 6.34925 21.5716 5.85023 21.5716H4.65854V38.0988C4.65854 38.5979 3.89883 39.0001 3.40726 39.0001C2.91569 39.0001 2.23047 38.5979 2.23047 38.0988Z" fill="#FF9015"/>
<path d="M18.3409 37.2199L15.7117 27.5672C15.6819 27.4555 15.6596 27.3512 15.6447 27.2395C15.5851 26.8224 15.6447 26.3979 15.8309 26.018L18.1026 21.1693C17.9536 21.0576 17.8121 20.9385 17.6855 20.8044L11.1088 14.0565L9.38832 17.7283C9.2766 17.9741 9.0904 18.1752 8.85951 18.3167C8.62117 18.5029 8.32325 18.6072 8.01043 18.6072H1.98495C1.22525 18.6072 0.599609 17.989 0.599609 17.2219C0.599609 16.4547 1.2178 15.8365 1.98495 15.8365H7.20604L9.91713 10.0643C10.5353 8.18738 12.5612 7.16699 14.4381 7.78518C14.9818 7.96394 15.4808 8.27675 15.8756 8.6864L22.8097 15.7993C23.7482 16.7601 24.0684 18.1678 23.6365 19.4414C23.5992 19.5904 23.5545 19.7393 23.4875 19.8734L20.0763 27.1427L22.5118 36.0804C22.8246 37.2348 22.1468 38.4265 20.9924 38.7393C19.8379 39.0521 18.6463 38.3744 18.3334 37.2199H18.3409ZM2.81913 4.88044C2.81913 2.7354 4.55453 1 6.69957 1C8.84461 1 10.58 2.7354 10.58 4.88044C10.58 7.02548 8.84461 8.76088 6.69957 8.76088C4.55453 8.76088 2.81913 7.02548 2.81913 4.88044Z" stroke="#222222"/>
</svg>
