<svg width="31" height="44" viewBox="0 0 31 44" fill="none" xmlns="http://www.w3.org/2000/svg">
<path d="M1.79249 36.2256C0.913499 35.5622 0.739358 34.31 1.40275 33.431L7.97862 24.7655C8.02008 24.7157 8.05325 24.666 8.09471 24.6245C8.45958 24.0523 9.09809 23.6958 9.77807 23.704H16.7105C16.7105 23.646 16.7105 23.5797 16.7105 23.5216V21.3573H13.3272C12.5477 21.3573 11.9175 20.7271 11.9175 19.9476C11.9175 19.1681 12.5477 18.5379 13.3272 18.5379H16.7105V13.0898C16.7437 10.8094 18.6178 8.98505 20.8982 9.00993C23.1371 9.04309 24.9448 10.8508 24.978 13.0898V23.5133C24.978 25.6693 23.3112 27.4688 21.1635 27.6346C21.006 27.6761 20.8401 27.6927 20.666 27.6927H10.7732L4.59532 35.8441C3.93193 36.7231 2.67978 36.8972 1.80078 36.2256H1.79249ZM17.3822 4.29985C17.3822 2.3926 18.9329 0.841919 20.8401 0.841919C22.7474 0.841919 24.298 2.3926 24.298 4.29985C24.298 6.2071 22.7474 7.75777 20.8401 7.75777C18.9329 7.75777 17.3822 6.2071 17.3822 4.29985Z" stroke="#222222"/>
<path d="M26.9589 42.0884V32.9253H13.6745V42.0884C13.6745 42.6689 13.2019 43.1498 12.6131 43.1498C12.0243 43.1498 11.5517 42.6772 11.5517 42.0884V32.7429C10.5483 32.2785 10.1171 31.0927 10.5732 30.0893C10.8966 29.3845 11.6097 28.9284 12.3892 28.9284H12.9531V23.5383C12.9531 23.472 12.9531 23.4056 12.9697 23.3393C12.9946 22.7754 13.4672 22.3359 14.0311 22.3359H26.7351L27.7467 12.6836C27.8379 11.788 28.6423 11.1329 29.5379 11.2324C30.4335 11.3236 31.0886 12.128 30.989 13.0236L29.1067 30.9766C29.1067 31.0844 29.0901 31.2005 29.0735 31.3083C29.0735 31.3415 29.0735 31.3663 29.0569 31.3995V42.0967C29.0569 42.6772 28.5843 43.1581 27.9955 43.1581C27.4067 43.1581 26.9341 42.6855 26.9341 42.0967L26.9589 42.0884ZM26.0468 28.9284L26.5195 24.4505H15.0759V28.9284H26.0468ZM17.6383 38.0085C16.5437 38.0085 15.5818 37.2871 15.275 36.234L15.0013 34.7994C14.9101 34.4926 15.0925 34.1609 15.3994 34.0779C15.4574 34.0614 15.5072 34.0531 15.5652 34.0531H25.0102C25.3336 34.0531 25.599 34.3101 25.599 34.6335C25.599 34.6916 25.599 34.7496 25.5741 34.7994L25.3005 36.234C24.9937 37.2871 24.0317 38.0085 22.9371 38.0085H17.6466H17.6383Z" fill="#FF9015"/>
</svg>
