<svg width="27" height="36" viewBox="0 0 27 36" fill="none" xmlns="http://www.w3.org/2000/svg">
<path d="M7.15533 35.5C6.2703 35.4588 5.40585 35.2633 4.59285 34.934C2.47289 34.193 1.19679 33.7505 0.743984 31.5379C0.548453 30.5912 1.0733 29.6958 2.28765 28.8725C3.11093 28.3374 4.00626 27.9258 4.94275 27.6376C5.97186 27.3803 6.91864 26.8864 7.72134 26.1969C8.17415 25.6206 11.9407 19.6106 11.9407 19.343C11.9407 19.2915 11.9613 19.2298 11.9819 19.1783C12.0951 18.8387 12.3523 18.0257 11.5188 15.4838C11.2306 14.5165 10.819 13.5903 10.3044 12.7258C9.72811 11.7379 9.25472 10.6985 8.89453 9.61791C7.6596 7.29212 6.92893 6.10864 6.53787 5.46031C6.40408 5.25448 6.28059 5.04866 6.17768 4.83255C6.10564 4.67818 6.10564 4.49294 6.17768 4.33858C6.24972 4.17392 6.3835 4.04014 6.55845 3.97839C6.93922 3.81373 16.2424 0.5 17.1994 0.5C17.22 0.5 17.2303 0.5 17.2509 0.5L17.4156 0.541164C17.8787 0.664657 17.9816 0.68524 18.0948 1.313C18.1153 1.41591 18.1462 1.69377 18.1874 2.12599C18.4344 4.51353 19.1959 11.7687 20.9866 13.7446C21.6349 14.9075 22.4685 15.9675 23.4461 16.8731C23.652 17.0687 23.8886 17.2848 24.1768 17.5729C25.35 18.5094 26.1115 19.8678 26.2968 21.36C26.1218 21.4835 26.0292 21.6894 26.0395 21.8952C26.0395 22.0907 26.1115 22.2862 26.2659 22.42C26.1527 23.1198 25.8234 23.7682 25.3294 24.2827C25.1545 24.4577 24.9795 24.6326 24.7943 24.787H24.7737C24.609 24.787 24.4547 24.8384 24.3209 24.9208C24.1151 25.034 23.971 25.2295 23.9195 25.4559C23.724 25.5897 23.5182 25.7235 23.3021 25.847C23.23 25.8264 23.158 25.8161 23.0757 25.8161C22.9419 25.8161 22.8081 25.847 22.6949 25.9087C22.4582 26.0116 22.2832 26.2174 22.2215 26.4644C21.7069 26.732 21.1924 26.9893 20.6984 27.2363C19.659 27.6891 18.6711 28.2654 17.7552 28.9446C15.0795 31.1469 12.2597 33.1536 9.29588 34.934C8.63725 35.2839 7.90658 35.4794 7.15533 35.5ZM11.9716 31.8672C11.7863 31.8672 11.632 32.0216 11.632 32.2069C11.632 32.3921 11.7863 32.5465 11.9716 32.5465C12.1568 32.5465 12.3112 32.3921 12.3112 32.2069C12.3112 32.0216 12.1568 31.8672 11.9716 31.8672ZM12.9801 31.0337C12.7949 31.0337 12.6405 31.1777 12.6405 31.363C12.6405 31.5482 12.7846 31.7026 12.9698 31.7026C13.155 31.7026 13.3094 31.5585 13.3094 31.3733C13.3094 31.188 13.155 31.044 12.9801 31.044V31.0337ZM13.8137 30.2001C13.6284 30.2001 13.4741 30.3442 13.4741 30.5294C13.4741 30.7146 13.6181 30.869 13.8034 30.869C13.9886 30.869 14.143 30.7249 14.143 30.5397C14.143 30.3545 13.9886 30.2104 13.8137 30.2104V30.2001ZM14.9869 30.2413C14.8839 30.2413 14.7913 30.2824 14.7193 30.3545C14.5958 30.4574 14.5649 30.6426 14.6575 30.7661C14.6987 30.8073 14.7502 30.8278 14.8119 30.8278C14.9148 30.8278 15.0074 30.7867 15.0795 30.7146C15.203 30.6117 15.2338 30.4368 15.1412 30.303C15.1001 30.2618 15.0486 30.2413 14.9869 30.2413ZM14.6575 29.2019C14.4723 29.2019 14.3179 29.3459 14.3179 29.5312C14.3179 29.7164 14.462 29.8708 14.6472 29.8708C14.8325 29.8708 14.9869 29.7267 14.9869 29.5415C14.9869 29.3562 14.8325 29.2121 14.6575 29.2121V29.2019ZM16.6746 28.5329C16.4894 28.5329 16.335 28.6873 16.335 28.8725C16.335 29.0578 16.4894 29.2121 16.6746 29.2121C16.8598 29.2121 17.0142 29.0578 17.0142 28.8725C17.0142 28.6873 16.8598 28.5432 16.6746 28.5432V28.5329ZM15.3265 28.3683C15.1412 28.3683 14.9869 28.5124 14.9869 28.6976C14.9869 28.8828 15.1309 29.0372 15.3162 29.0372C15.5014 29.0372 15.6558 28.8931 15.6558 28.7079C15.6558 28.5226 15.5014 28.3786 15.3265 28.3786V28.3683ZM18.7534 26.2998C18.5784 26.2998 18.4035 26.3615 18.2594 26.4644C18.1051 26.5673 17.9816 26.732 17.9198 26.9069C17.8684 27.0613 17.8889 27.2363 17.9816 27.37C18.0845 27.5141 18.2594 27.5964 18.4344 27.5862C18.6093 27.5862 18.7843 27.5244 18.9283 27.4215C19.0827 27.3186 19.2062 27.1539 19.268 26.979C19.3194 26.8246 19.2988 26.6497 19.2062 26.5159C19.1033 26.3718 18.9283 26.2895 18.7534 26.2998ZM20.8425 25.5074C20.7807 25.5074 20.719 25.5074 20.6572 25.5279C20.2868 25.5588 20.0089 25.8778 20.0295 26.2483C20.1118 26.5365 20.4 26.7217 20.6984 26.7011C20.7602 26.7011 20.8219 26.7011 20.8836 26.6805C21.0998 26.6394 21.2953 26.5262 21.4291 26.3409C21.5114 26.2277 21.5423 26.0939 21.5217 25.9602C21.4291 25.672 21.1512 25.4868 20.8528 25.5176L20.8425 25.5074ZM21.4394 23.8402C21.1203 23.8402 20.8528 24.1078 20.8528 24.4268C20.8528 24.7458 21.1203 25.0134 21.4394 25.0134C21.7584 25.0134 22.026 24.7458 22.026 24.4268C22.026 24.1078 21.7687 23.8402 21.4394 23.8402ZM23.6211 23.0066C23.3021 23.0066 23.0345 23.2742 23.0345 23.5932C23.0345 23.9122 23.3021 24.1798 23.6211 24.1798C23.9401 24.1798 24.2077 23.9122 24.2077 23.5932C24.2077 23.2742 23.9504 23.0066 23.6211 23.0066ZM25.2985 22.0084C25.0721 22.0084 24.8766 22.2759 24.8766 22.595C24.8766 22.914 25.0618 23.1816 25.2985 23.1816C25.5352 23.1816 25.7205 22.914 25.7205 22.595C25.7205 22.2759 25.5249 22.0084 25.2985 22.0084Z" fill="#FF9015"/>
</svg>
