<svg width="36" height="24" viewBox="0 0 36 24" fill="none" xmlns="http://www.w3.org/2000/svg">
<path d="M35.4641 6.17578L33.4381 1.0303C33.4381 1.0303 33.2344 0.730144 32.8485 0.837342C32.6234 0.90166 21.046 4.83581 21.046 4.83581L19.7704 2.58466C19.7704 2.58466 19.2451 1.10534 17.337 1.46981C15.4289 1.83428 4.45184 4.22478 4.45184 4.22478C4.45184 4.22478 2.79028 4.56782 2.28645 6.71177L1.43959 10.8496C1.43959 10.8496 -0.104058 11.3534 0.753522 14.2799L2.09349 20.2937C2.09349 20.2937 2.6938 23.7991 5.81325 23.0916L26.8347 16.3059C26.8347 16.3059 28.9572 15.6092 28.7321 12.3718C28.7321 12.3718 28.5606 10.6245 29.3002 8.88788C30.2436 6.65817 33.7275 6.14362 34.7137 6.54025C35.6999 6.93688 35.4855 6.17578 35.4855 6.17578M4.47328 9.54178L4.64479 7.50503C4.64479 7.50503 4.77343 6.42233 6.40283 6.16506L16.34 3.84959C16.34 3.84959 17.2727 3.67808 17.8944 4.88941C18.2374 5.55403 18.3018 5.68267 18.3018 5.68267L4.46256 9.54178H4.47328Z" fill="#FF9015"/>
</svg>
