<svg width="40" height="17" viewBox="0 0 40 17" fill="none" xmlns="http://www.w3.org/2000/svg">
<path d="M32.0723 4.35732C32.0723 2.62131 33.1999 1.21179 34.5888 1.21179C35.9776 1.21179 37.1052 2.62131 37.1052 4.35732C37.1052 6.09333 35.9776 7.50284 34.5888 7.50284C33.1999 7.50284 32.0723 6.09333 32.0723 4.35732ZM4.7867 7.49488C3.8757 7.49488 3.14307 6.57113 3.14307 5.43237C3.14307 4.29361 3.88207 3.37782 4.7867 3.37782H16.8464C16.8974 2.29481 17.6173 1.45069 18.49 1.44273H29.5241C30.4351 1.44273 31.1677 2.36648 31.1677 3.49727V5.49608C31.1358 6.60298 30.4096 7.48691 29.5241 7.48691H4.7867V7.49488Z" stroke="#222222"/>
<path d="M1.69703 16.7881C0.709572 16.7244 -0.0485392 15.6733 0.00242624 14.439C0.047021 13.3002 0.77965 12.3844 1.69703 12.3207H2.52522C2.51248 12.2251 2.5061 12.1375 2.5061 12.042V11.9464C2.5061 10.8953 3.18777 10.0511 4.02233 10.0511C4.85689 10.0511 5.53855 10.9032 5.53855 11.9464V12.034C5.53855 12.1296 5.53855 12.2172 5.51944 12.3127H7.02929C7.01655 12.2172 7.01018 12.1296 7.01018 12.034V11.9464C7.01018 10.8953 7.69184 10.0511 8.5264 10.0511C9.36096 10.0511 10.0426 10.9032 10.0426 11.9464V12.034C10.0426 12.1296 10.0426 12.2172 10.0235 12.3127H11.5334C11.5206 12.2172 11.5142 12.1296 11.5142 12.034V11.9464C11.5142 10.8953 12.1959 10.0511 13.0305 10.0511C13.865 10.0511 14.5467 10.9032 14.5467 11.9464V12.034C14.5467 12.1296 14.5467 12.2172 14.5276 12.3127H16.0374C16.0247 12.2172 16.0183 12.1296 16.0183 12.034V11.9464C16.0183 10.8953 16.7 10.0511 17.5345 10.0511C18.3691 10.0511 19.0508 10.9032 19.0508 11.9464V12.034C19.0508 12.1296 19.0508 12.2172 19.0317 12.3127H20.5415C20.5288 12.2172 20.5224 12.1296 20.5224 12.034V11.9464C20.5224 10.8953 21.2041 10.0511 22.0386 10.0511C22.8732 10.0511 23.5548 10.9032 23.5548 11.9464V12.034C23.5548 12.1296 23.5548 12.2172 23.5357 12.3127H25.0456C25.0328 12.2172 25.0265 12.1296 25.0265 12.034V11.9464C25.0265 10.8953 25.7081 10.0511 26.5427 10.0511C27.3772 10.0511 28.0589 10.9032 28.0589 11.9464V12.034C28.0589 12.1296 28.0589 12.2172 28.0398 12.3127H29.5497C29.5369 12.2172 29.5305 12.1296 29.5305 12.034V11.9464C29.5305 10.8953 30.2122 10.0511 31.0468 10.0511C31.8813 10.0511 32.563 10.9032 32.563 11.9464V12.034C32.563 12.1296 32.563 12.2172 32.5439 12.3127H34.0537C34.041 12.2172 34.0346 12.1296 34.0346 12.034V11.9464C34.0346 10.8953 34.7163 10.0511 35.5508 10.0511C36.3854 10.0511 37.0671 10.9032 37.0671 11.9464V12.034C37.0671 12.1296 37.0671 12.2172 37.0479 12.3127H38.303C39.2904 12.3764 40.0485 13.4276 39.9976 14.6619C39.953 15.8007 39.2203 16.7165 38.303 16.7802H1.69703V16.7881Z" fill="#FF9015"/>
</svg>
