<svg width="40" height="34" viewBox="0 0 40 34" fill="none" xmlns="http://www.w3.org/2000/svg">
<g clip-path="url(#clip0_1472_551)">
<path d="M11.6645 6.70689C13.2867 6.70689 14.5991 5.39445 14.5991 3.77233C14.5991 2.15021 13.2867 0.837769 11.6645 0.837769C10.0424 0.837769 8.72998 2.15021 8.72998 3.77233C8.72998 5.39445 10.0424 6.70689 11.6645 6.70689Z" stroke="#222222"/>
<path d="M26.927 24.8377L21.6993 18.305C21.6404 18.2313 21.5666 18.1649 21.5003 18.1059C21.139 17.7078 20.6228 17.4571 20.0404 17.4571H15.1371V14.9133H20.0625C20.7777 14.9133 21.3602 14.3308 21.3602 13.6156C21.3602 12.9004 20.7777 12.3179 20.0625 12.3179H15.1371V11.7575C15.1371 9.8331 13.5814 8.27734 11.6569 8.27734C9.73252 8.27734 8.17676 9.8331 8.17676 11.7575V17.9437C8.17676 19.8681 9.73252 21.4239 11.6569 21.4239C11.6864 21.4239 11.7086 21.4239 11.738 21.4165C11.7897 21.4165 11.8339 21.4313 11.8855 21.4313H19.0966L23.8228 27.3372C24.5086 28.1925 25.762 28.3326 26.6173 27.6469C27.4726 26.9612 27.6127 25.7078 26.927 24.8525V24.8377Z" stroke="#222222"/>
<path d="M17.6 25.0958C17.3567 24.7935 16.988 24.5945 16.5677 24.5945C16.1475 24.5945 15.7788 24.7935 15.5355 25.0958C14.1788 26.6147 12.2175 27.5733 10.0203 27.5733C5.93548 27.5733 2.62488 24.2627 2.62488 20.1779C2.62488 18.0839 3.5023 16.1963 4.89585 14.8544C4.89585 14.8544 4.90323 14.847 4.9106 14.8396C5.14654 14.5963 5.30138 14.2719 5.30138 13.9106C5.30138 13.5493 5.15392 13.2175 4.9106 12.9816C4.67465 12.7456 4.34286 12.5981 3.98157 12.5981C3.62028 12.5981 3.28848 12.7456 3.05253 12.9816C1.17235 14.8101 0 17.3539 0 20.1779C0 25.7152 4.49032 30.1981 10.0203 30.1981C12.9917 30.1981 15.6535 28.9004 17.4894 26.8507C17.4968 26.8433 17.5115 26.8286 17.5189 26.8212C17.7475 26.5852 17.8876 26.2608 17.8876 25.9069C17.8876 25.5972 17.777 25.317 17.5926 25.0885" fill="#FF9015"/>
<path d="M37.9431 33.5309H31.9707V26.5631H37.9431C39.0785 26.5631 40.0002 27.4848 40.0002 28.6203V31.4737C40.0002 32.6092 39.0785 33.5309 37.9431 33.5309Z" fill="#FF9015"/>
<path d="M31.978 26.5631V33.5309H26.1752C25.4453 33.5309 25.0766 32.6534 25.5854 32.1299L31.9706 26.5631H31.978Z" fill="#FF9015"/>
</g>
<defs>
<clipPath id="clip0_1472_551">
<rect width="40" height="33.0618" fill="white" transform="translate(0 0.469116)"/>
</clipPath>
</defs>
</svg>
