<svg width="30" height="32" viewBox="0 0 30 32" fill="none" xmlns="http://www.w3.org/2000/svg">
<g clip-path="url(#clip0_1304_3622)">
<path d="M11.1098 20.0349L10.2598 21.8549C10.3398 21.8749 10.4198 21.9049 10.5098 21.9049C11.0898 21.9049 11.5498 21.4349 11.5498 20.8649C11.5498 20.5149 11.3698 20.2249 11.1098 20.0349Z" fill="#FF9015"/>
<path d="M5.29008 17.8049V8.53491C2.81008 8.63491 0.830078 10.6649 0.830078 13.1649C0.830078 15.6649 2.81008 17.6949 5.29008 17.7949V17.8049Z" fill="#FF9015"/>
<path d="M12.54 8.5249H5.79004V17.8149H12.54V8.5249Z" fill="#FF9015"/>
<path d="M13.04 8.52494V17.8149H13.07L24.98 25.7749V0.564941L13.07 8.52494H13.04Z" fill="#FF9015"/>
<path d="M11.2897 18.2949H5.92966L1.41966 27.9649C0.849656 29.1849 1.37966 30.6349 2.59966 31.2049C3.81966 31.7749 5.26966 31.2449 5.82966 30.0249L11.2697 18.3749C11.2697 18.3749 11.2897 18.3249 11.2997 18.2949H11.2897Z" fill="#FF9015"/>
<path d="M26.3605 0.564941H25.4805V25.7749H26.3605V0.564941Z" fill="#FF9015"/>
<path d="M26.8604 10.3949V15.0249C28.1404 15.0249 29.1804 13.9849 29.1804 12.7049C29.1804 11.4249 28.1504 10.3849 26.8604 10.3849V10.3949Z" fill="#FF9015"/>
</g>
<defs>
<clipPath id="clip0_1304_3622">
<rect width="28.34" height="30.87" fill="white" transform="translate(0.830078 0.564941)"/>
</clipPath>
</defs>
</svg>
